<svg width="84" height="15" viewBox="0 0 84 15" fill="none" xmlns="http://www.w3.org/2000/svg">
<path d="M5.26705 6C5.24432 5.71591 5.13778 5.49432 4.94744 5.33523C4.75994 5.17614 4.47443 5.09659 4.09091 5.09659C3.84659 5.09659 3.64631 5.12642 3.49006 5.18608C3.33665 5.2429 3.22301 5.32102 3.14915 5.42045C3.07528 5.51989 3.03693 5.63352 3.03409 5.76136C3.02841 5.86648 3.04688 5.96165 3.08949 6.04688C3.13494 6.12926 3.20597 6.20455 3.30256 6.27273C3.39915 6.33807 3.52273 6.39773 3.6733 6.4517C3.82386 6.50568 4.00284 6.55398 4.21023 6.59659L4.92614 6.75C5.40909 6.85227 5.82244 6.98722 6.16619 7.15483C6.50994 7.32244 6.79119 7.51989 7.00994 7.74716C7.22869 7.97159 7.3892 8.22443 7.49148 8.50568C7.59659 8.78693 7.65057 9.09375 7.65341 9.42614C7.65057 10 7.5071 10.4858 7.22301 10.8835C6.93892 11.2812 6.53267 11.5838 6.00426 11.7912C5.47869 11.9986 4.84659 12.1023 4.10795 12.1023C3.34943 12.1023 2.6875 11.9901 2.12216 11.7656C1.55966 11.5412 1.12216 11.196 0.809659 10.7301C0.5 10.2614 0.34375 9.66193 0.340909 8.93182H2.59091C2.60511 9.19886 2.67188 9.4233 2.79119 9.60511C2.91051 9.78693 3.07813 9.92472 3.29403 10.0185C3.51278 10.1122 3.77273 10.1591 4.07386 10.1591C4.3267 10.1591 4.53835 10.1278 4.70881 10.0653C4.87926 10.0028 5.00852 9.91619 5.09659 9.8054C5.18466 9.6946 5.23011 9.56818 5.23295 9.42614C5.23011 9.29261 5.18608 9.17614 5.10085 9.0767C5.01847 8.97443 4.8821 8.88352 4.69176 8.80398C4.50142 8.72159 4.24432 8.64489 3.92045 8.57386L3.05114 8.38636C2.27841 8.21875 1.66903 7.93892 1.22301 7.54688C0.77983 7.15199 0.559659 6.61364 0.5625 5.93182C0.559659 5.37784 0.707386 4.89347 1.00568 4.47869C1.30682 4.06108 1.72301 3.7358 2.25426 3.50284C2.78835 3.26989 3.40057 3.15341 4.09091 3.15341C4.79545 3.15341 5.40483 3.27131 5.91903 3.5071C6.43324 3.7429 6.82955 4.07528 7.10795 4.50426C7.3892 4.9304 7.53125 5.42898 7.53409 6H5.26705ZM8.31605 5.18182V3.27273H15.9013V5.18182H13.2763V12H10.9411V5.18182H8.31605ZM16.793 12V3.27273H20.56C21.2077 3.27273 21.7745 3.39062 22.2603 3.62642C22.7461 3.86222 23.1239 4.2017 23.3938 4.64489C23.6637 5.08807 23.7987 5.61932 23.7987 6.23864C23.7987 6.86364 23.6594 7.39062 23.381 7.8196C23.1055 8.24858 22.7177 8.57244 22.2177 8.79119C21.7205 9.00994 21.1396 9.11932 20.4748 9.11932H18.2248V7.27841H19.9975C20.2759 7.27841 20.5131 7.24432 20.7092 7.17614C20.908 7.10511 21.06 6.9929 21.1651 6.83949C21.2731 6.68608 21.3271 6.4858 21.3271 6.23864C21.3271 5.98864 21.2731 5.78551 21.1651 5.62926C21.06 5.47017 20.908 5.35369 20.7092 5.27983C20.5131 5.20312 20.2759 5.16477 19.9975 5.16477H19.1623V12H16.793ZM21.9066 7.99432L24.0884 12H21.5146L19.3839 7.99432H21.9066ZM27.0756 12H24.5188L27.3995 3.27273H30.6381L33.5188 12H30.962L29.0529 5.67614H28.9847L27.0756 12ZM26.5984 8.55682H31.4052V10.3295H26.5984V8.55682ZM41.9105 3.27273V12H39.9332L36.7798 7.41477H36.7287V12H34.3594V3.27273H36.3707L39.473 7.84091H39.5412V3.27273H41.9105ZM48.6989 6.15341C48.6619 6.00284 48.6037 5.87074 48.5241 5.7571C48.4446 5.64062 48.3452 5.54261 48.2259 5.46307C48.1094 5.38068 47.973 5.3196 47.8168 5.27983C47.6634 5.23722 47.4943 5.21591 47.3097 5.21591C46.9119 5.21591 46.5724 5.31108 46.2912 5.50142C46.0128 5.69176 45.7997 5.96591 45.652 6.32386C45.5071 6.68182 45.4347 7.11364 45.4347 7.61932C45.4347 8.13068 45.5043 8.56818 45.6435 8.93182C45.7827 9.29545 45.9901 9.57386 46.2656 9.76705C46.5412 9.96023 46.8835 10.0568 47.2926 10.0568C47.6534 10.0568 47.9531 10.0043 48.1918 9.89915C48.4332 9.79403 48.6136 9.64489 48.733 9.4517C48.8523 9.25852 48.9119 9.03125 48.9119 8.76989L49.321 8.8125H47.3267V7.125H51.196V8.33523C51.196 9.13068 51.027 9.81108 50.6889 10.3764C50.3537 10.9389 49.8906 11.3707 49.2997 11.6719C48.7116 11.9702 48.0369 12.1193 47.2756 12.1193C46.4261 12.1193 45.6804 11.9389 45.0384 11.5781C44.3963 11.2173 43.8949 10.7031 43.5341 10.0355C43.1761 9.3679 42.9972 8.57386 42.9972 7.65341C42.9972 6.93182 43.1065 6.29261 43.3253 5.7358C43.5469 5.17898 43.8537 4.70881 44.2457 4.32528C44.6378 3.93892 45.0909 3.64773 45.6051 3.4517C46.1193 3.25284 46.6705 3.15341 47.2585 3.15341C47.7756 3.15341 48.2557 3.22727 48.6989 3.375C49.1449 3.51989 49.5384 3.72727 49.8793 3.99716C50.223 4.2642 50.5 4.58097 50.7102 4.94744C50.9205 5.31392 51.0483 5.71591 51.0938 6.15341H48.6989ZM52.3008 12V3.27273H58.5906V5.18182H54.6701V6.68182H58.2667V8.59091H54.6701V10.0909H58.5735V12H52.3008Z" fill="black"/>
<path d="M60.0568 12V3.27273H61.1136V11.0625H65.1705V12H60.0568ZM73.8306 7.63636C73.8306 8.55682 73.6644 9.35227 73.332 10.0227C72.9996 10.6932 72.5437 11.2102 71.9641 11.5739C71.3846 11.9375 70.7227 12.1193 69.9783 12.1193C69.234 12.1193 68.5721 11.9375 67.9925 11.5739C67.413 11.2102 66.957 10.6932 66.6246 10.0227C66.2923 9.35227 66.1261 8.55682 66.1261 7.63636C66.1261 6.71591 66.2923 5.92045 66.6246 5.25C66.957 4.57955 67.413 4.0625 67.9925 3.69886C68.5721 3.33523 69.234 3.15341 69.9783 3.15341C70.7227 3.15341 71.3846 3.33523 71.9641 3.69886C72.5437 4.0625 72.9996 4.57955 73.332 5.25C73.6644 5.92045 73.8306 6.71591 73.8306 7.63636ZM72.8079 7.63636C72.8079 6.88068 72.6815 6.2429 72.4286 5.72301C72.1786 5.20312 71.8391 4.80966 71.4102 4.54261C70.984 4.27557 70.5067 4.14205 69.9783 4.14205C69.4499 4.14205 68.9712 4.27557 68.5423 4.54261C68.1161 4.80966 67.7766 5.20312 67.5238 5.72301C67.2738 6.2429 67.1488 6.88068 67.1488 7.63636C67.1488 8.39205 67.2738 9.02983 67.5238 9.54972C67.7766 10.0696 68.1161 10.4631 68.5423 10.7301C68.9712 10.9972 69.4499 11.1307 69.9783 11.1307C70.5067 11.1307 70.984 10.9972 71.4102 10.7301C71.8391 10.4631 72.1786 10.0696 72.4286 9.54972C72.6815 9.02983 72.8079 8.39205 72.8079 7.63636ZM81.5735 6C81.4798 5.71307 81.3562 5.45597 81.2028 5.22869C81.0522 4.99858 80.8718 4.80256 80.6616 4.64062C80.4542 4.47869 80.2184 4.35511 79.9542 4.26989C79.69 4.18466 79.4002 4.14205 79.0849 4.14205C78.5678 4.14205 78.0977 4.27557 77.6744 4.54261C77.2511 4.80966 76.9144 5.20312 76.6644 5.72301C76.4144 6.2429 76.2894 6.88068 76.2894 7.63636C76.2894 8.39205 76.4158 9.02983 76.6687 9.54972C76.9215 10.0696 77.2638 10.4631 77.6957 10.7301C78.1275 10.9972 78.6133 11.1307 79.1531 11.1307C79.6531 11.1307 80.0934 11.0241 80.4741 10.8111C80.8576 10.5952 81.1559 10.2912 81.369 9.89915C81.5849 9.50426 81.6928 9.03977 81.6928 8.50568L82.0167 8.57386H79.3917V7.63636H82.7156V8.57386C82.7156 9.29261 82.5621 9.91761 82.2553 10.4489C81.9513 10.9801 81.5309 11.392 80.994 11.6847C80.4599 11.9744 79.8462 12.1193 79.1531 12.1193C78.3803 12.1193 77.7013 11.9375 77.1161 11.5739C76.5337 11.2102 76.0792 10.6932 75.7525 10.0227C75.4286 9.35227 75.2667 8.55682 75.2667 7.63636C75.2667 6.94602 75.359 6.32528 75.5437 5.77415C75.7312 5.22017 75.9954 4.74858 76.3363 4.35938C76.6772 3.97017 77.0806 3.67188 77.5465 3.46449C78.0124 3.2571 78.5252 3.15341 79.0849 3.15341C79.5451 3.15341 79.9741 3.22301 80.3718 3.36222C80.7724 3.49858 81.1289 3.69318 81.4414 3.94602C81.7567 4.19602 82.0195 4.49574 82.2298 4.84517C82.44 5.19176 82.5849 5.5767 82.6644 6H81.5735Z" fill="black"/>
</svg>
